<svg width="324" height="346" viewBox="0 0 324 346" fill="none" xmlns="http://www.w3.org/2000/svg">
<path d="M261.483 195.523C268.09 171.842 273.375 147.792 277.339 123.523C281.377 114.329 285.928 105.357 290.92 96.6786C297.086 86.0146 304.354 76.1596 311.107 65.8633C317.127 56.6701 322.559 46.5209 323.22 35.4156C323.734 26.7373 321.825 17.3971 316.026 10.6309C309.639 3.12934 299.802 0.187537 290.186 1.07008C279.762 1.95262 270.292 7.46849 262.217 13.8669C253.481 20.8537 245.333 28.7966 237.625 36.813C222.723 52.331 209.509 69.4669 198.131 87.7061C189.762 84.4701 181.687 80.5722 173.612 76.7479C161.867 71.1585 149.975 66.231 137.348 62.9214C114.812 57.0378 89.4123 54.7579 67.3162 63.4362C47.3489 71.3056 30.5382 89.2505 30.2446 111.608C30.0978 120.434 32.6671 128.156 36.9248 134.922C27.8221 139.923 20.1142 147.057 15.3426 156.471C10.4976 166.032 9.54328 177.725 13.5074 187.727C14.9755 191.405 17.031 194.714 19.5269 197.656C12.1126 204.422 5.43237 213.027 2.34919 222.661C-0.587169 231.781 1.10123 240.974 5.94623 249.137C7.341 251.417 8.956 253.55 10.7178 255.609C2.56941 262.743 -0.0733056 274.437 2.34919 284.88C5.13873 297.162 14.0946 306.723 23.7112 314.298C31.1255 320.108 39.0537 325.33 47.2755 329.963C51.3864 332.537 55.7175 334.964 60.0487 337.171C64.6734 339.451 69.5184 341.584 74.4368 343.054C77.8137 344.084 81.2639 344.967 84.7141 345.408C87.0632 345.702 89.4123 345.849 91.7614 345.776C92.9359 345.776 94.1104 345.702 95.2116 345.555C98.4416 345.261 101.672 344.378 104.828 343.349C107.03 342.613 109.159 341.657 111.215 340.48C112.83 339.598 114.445 338.642 115.913 337.612C125.162 339.818 134.559 341.069 144.102 340.922C164.436 340.554 183.523 332.317 198.939 319.152C215.896 304.737 227.862 285.542 236.964 265.391C247.168 243.033 254.803 219.278 261.483 195.523Z" fill="#EF9E81"/>
</svg>
